<svg xmlns="http://www.w3.org/2000/svg" width="1180" height="380" viewBox="0 0 1180 380" role="img" aria-labelledby="title desc">
  <title id="title">AbyssL Translator Translation Flow</title>
  <desc id="desc">Flow from Source through MainShell and the API client to OpenAI- or Anthropic-compatible providers, Translation, Synonyms, and Alternatives.</desc>
  <defs>
    <marker id="arrow" viewBox="0 0 10 10" refX="9" refY="5" markerWidth="8" markerHeight="8" orient="auto-start-reverse">
      <path d="M 0 0 L 10 5 L 0 10 z" fill="#4a5568"/>
    </marker>
    <style>
      .box { fill: #f8fafc; stroke: #2d3748; stroke-width: 2; rx: 8; }
      .accent { fill: #e6fffa; stroke: #047481; stroke-width: 2; rx: 8; }
      .provider { fill: #eef2ff; stroke: #4c51bf; stroke-width: 2; rx: 8; }
      .alt { fill: #fffaf0; stroke: #b7791f; stroke-width: 2; rx: 8; }
      .text { font-family: -apple-system, BlinkMacSystemFont, "Segoe UI", sans-serif; font-size: 20px; fill: #1a202c; }
      .small { font-size: 15px; fill: #4a5568; }
      .line { stroke: #4a5568; stroke-width: 2.5; fill: none; marker-end: url(#arrow); }
    </style>
  </defs>

  <rect x="30" y="70" width="185" height="100" class="accent"/>
  <text x="122" y="110" text-anchor="middle" class="text">Source</text>
  <text x="122" y="138" text-anchor="middle" class="small">Input or shortcut</text>

  <rect x="275" y="70" width="210" height="100" class="box"/>
  <text x="380" y="108" text-anchor="middle" class="text">MainShell</text>
  <text x="380" y="136" text-anchor="middle" class="small">debounce, state, requests</text>

  <rect x="555" y="30" width="215" height="95" class="provider"/>
  <text x="662" y="70" text-anchor="middle" class="text">OpenAI-compatible</text>
  <text x="662" y="98" text-anchor="middle" class="small">/chat/completions</text>

  <rect x="555" y="155" width="215" height="95" class="provider"/>
  <text x="662" y="195" text-anchor="middle" class="text">Anthropic-compatible</text>
  <text x="662" y="223" text-anchor="middle" class="small">/messages · cloud or local</text>

  <rect x="850" y="70" width="230" height="100" class="accent"/>
  <text x="965" y="108" text-anchor="middle" class="text">Translation</text>
  <text x="965" y="136" text-anchor="middle" class="small">edit and copy</text>

  <rect x="850" y="235" width="230" height="100" class="alt"/>
  <text x="965" y="273" text-anchor="middle" class="text">Alternatives</text>
  <text x="965" y="301" text-anchor="middle" class="small">chips and AI instruction</text>

  <path d="M 215 120 L 275 120" class="line"/>
  <path d="M 485 105 C 520 80, 525 78, 555 78" class="line"/>
  <path d="M 485 135 C 520 185, 525 202, 555 202" class="line"/>
  <path d="M 770 78 C 810 80, 815 105, 850 120" class="line"/>
  <path d="M 770 202 C 815 205, 825 150, 850 135" class="line"/>
  <path d="M 965 170 L 965 235" class="line"/>
  <path d="M 850 285 C 805 285, 800 140, 850 130" class="line"/>
</svg>
